<?xml version="1.0" encoding="utf-8"?>
<!-- Generator: Adobe Illustrator 21.1.0, SVG Export Plug-In . SVG Version: 6.00 Build 0)  -->
<!DOCTYPE svg PUBLIC "-//W3C//DTD SVG 1.1//EN" "http://www.w3.org/Graphics/SVG/1.1/DTD/svg11.dtd">
<svg version="1.1" id="Layer_1" xmlns="http://www.w3.org/2000/svg" xmlns:xlink="http://www.w3.org/1999/xlink" x="0px" y="0px"
	 viewBox="0 0 174.1 157.8" style="enable-background:new 0 0 174.1 157.8;" xml:space="preserve">
<style type="text/css">
	.st0{fill:#006D9C;}
	.st1{opacity:0.21;}
	.st2{fill:#FFFFFF;}
</style>
<g>
	<g>
		<path class="st0" d="M140.2,13.1l30.5,52.8c4.7,8.1,4.7,18,0,26.1l-30.5,52.8c-4.7,8.1-13.3,13-22.6,13h-61c-9.3,0-17.9-5-22.6-13
			L3.5,92c-4.7-8.1-4.7-18,0-26.1L34,13.1C38.7,5,47.3,0,56.6,0l61,0C126.9,0,135.5,5,140.2,13.1z"/>
	</g>
	<path class="st1" d="M50.4,111.5l46.3,46.3h21.5c9.4,0,18.1-5.1,22.8-13.3l30.1-53.2l-43.9-43.9L50.4,63.9l6.8,6.9l12.9,5.5v7.5
		l-19.7,4l6.8,6.6l12.9,5.9v7.5L50.4,111.5z"/>
	<g>
		<path class="st2" d="M52.5,64.8h72.7c1.6,0,2.9-1.3,2.9-2.9l0,0v-12c0-1.6-1.3-2.9-2.9-2.9H52.5c-1.6,0-2.9,1.3-2.9,2.9v12
			C49.6,63.5,50.9,64.8,52.5,64.8z M54.8,52.5h15.3V60H54.8V52.5z"/>
		<path class="st2" d="M128.2,73.8c0-1.6-1.3-2.9-2.9-2.9H52.5c-1.6,0-2.9,1.3-2.9,2.9v12c0,1.6,1.3,2.9,2.9,2.9h72.7
			c1.6,0,2.9-1.3,2.9-2.9l0,0V73.8z M70.1,83.9H54.8v-7.5h15.3V83.9z"/>
		<path class="st2" d="M128.2,97.4c0-1.6-1.3-2.9-2.9-2.9H52.5c-1.6,0-2.9,1.3-2.9,2.9v12c0,1.6,1.3,2.9,2.9,2.9h72.7
			c1.6,0,2.9-1.3,2.9-2.9l0,0V97.4z M70.1,107.8H54.8v-7.5h15.3V107.8z"/>
	</g>
</g>
</svg>
