<svg id="Layer_1" data-name="Layer 1" xmlns="http://www.w3.org/2000/svg" xmlns:xlink="http://www.w3.org/1999/xlink" viewBox="0 0 141.82 164.06"><defs><style>.cls-1{fill:#1e1e1e;}.cls-2{fill:#4d4c4c;}.cls-3{fill:url(#linear-gradient);}.cls-4{fill:none;stroke:#fff;stroke-miterlimit:10;stroke-width:3px;}.cls-5{fill:#5fb56e;}.cls-6{fill:#fff;}</style><linearGradient id="linear-gradient" x1="128.27" y1="65.54" x2="70.91" y2="65.54" gradientUnits="userSpaceOnUse"><stop offset="0" stop-color="#18365e"/><stop offset="1" stop-color="#5fb56e"/></linearGradient></defs><title>vps-plan-1</title><g id="ZGSfg0.tif"><g id="i8ojeT.tif"><path class="cls-1" d="M70.91,164.06L0,123V41L70.91,0l70.91,41v82Z"/></g></g><path class="cls-2" d="M70.91,25.32l49.36,28.37v56.68L70.91,138.74,21.55,110.37V53.69L70.91,25.32m0-9.23-57.36,33V115l57.36,33,57.36-33V49.06l-57.36-33h0Z"/><path class="cls-3" d="M128.27,115V49.06l-57.36-33v9.23l49.36,28.37v56.68Z"/><rect class="cls-4" x="33.86" y="60.54" width="74.11" height="18.23" rx="2.83" ry="2.83"/><rect class="cls-4" x="33.86" y="85.29" width="74.11" height="18.23" rx="2.83" ry="2.83"/><circle class="cls-5" cx="96.85" cy="69.87" r="3.71"/><rect class="cls-6" x="39.86" y="65.32" width="3.56" height="9.11" rx="1.42" ry="1.42"/><rect class="cls-6" x="45.75" y="65.32" width="3.56" height="9.11" rx="1.42" ry="1.42"/><rect class="cls-6" x="51.64" y="65.32" width="3.56" height="9.11" rx="1.42" ry="1.42"/><rect class="cls-6" x="57.53" y="65.32" width="3.56" height="9.11" rx="1.42" ry="1.42"/><circle class="cls-5" cx="96.85" cy="94.4" r="3.71"/><rect class="cls-6" x="39.86" y="89.85" width="3.56" height="9.11" rx="1.42" ry="1.42"/><rect class="cls-6" x="45.75" y="89.85" width="3.56" height="9.11" rx="1.42" ry="1.42"/><rect class="cls-6" x="51.64" y="89.85" width="3.56" height="9.11" rx="1.42" ry="1.42"/><rect class="cls-6" x="57.53" y="89.85" width="3.56" height="9.11" rx="1.42" ry="1.42"/></svg>